# xmcd
#
# Track frame offsets: 
#        150
#        26625
#        48175
#        75690
#        95895
#        119180
#        139920
#        164675
#        183845
#        205375
#        225860
#
# Disc length: 3207 seconds
#
# Revision: 0
# Processed by: cddbd v1.5.2PL0 Copyright (c) Steve Scherf et al.
# Submitted via: ExactAudioCopy v1.0b1
#
DISCID=980c850b
DTITLE=Lee Ritenour - Wes Bound
DYEAR=1993
DGENRE=Jazz
TTITLE0=01.Wes Bound
TTITLE1=02.Boss City
TTITLE2=03.4 On 6
TTITLE3=04.A little Bumpin'
TTITLE4=05.Waiting In Vain
TTITLE5=06.Goin' On To Detroit
TTITLE6=07.A New Day
TTITLE7=08.Ocean Ave
TTITLE8=09.Road Song
TTITLE9=10.West Coast Blues
TTITLE10=11.N.Y.Time
EXTD=
EXTT0=
EXTT1=
EXTT2=
EXTT3=
EXTT4=
EXTT5=
EXTT6=
EXTT7=
EXTT8=
EXTT9=
EXTT10=
PLAYORDER=
